<svg xmlns="http://www.w3.org/2000/svg" viewBox="0 0 1366 10.316">
  <defs>
    <style>
      .cls-1 {
        fill: #0cac62;
      }
    </style>
  </defs>
  <path id="Path_188" data-name="Path 188" class="cls-1" d="M460.229,0h4.137c.827,1.241,2.068,1.034,3.31,1.034,9.2.1,18.513.207,27.717.931A52.812,52.812,0,0,0,515.042.1h13.445c7.55,2.792,15.2,2.792,23.063,1.758,2.9-.414,5.9-.931,8.687-.517,16.651,1.862,33.2-.1,49.85,0,1.448,0,3.206.31,4.24-1.241h14.479a3.932,3.932,0,0,0,5.171,0h12.411c4.551,3.827,10.342,3.827,15.41,3,13.031-2.172,26.062-.414,39.094-.517,9.2,0,18.513,3,27.717.931,4.861-1.138,9.618-.621,14.272-.1a61.107,61.107,0,0,0,10.652.207c6-.414,12.2-2.9,17.892-.827,6.205,2.275,12.2.931,18.2.827,9.618-.207,19.133-1.862,28.751-.827,4.137.414,8.481,1.448,12.307,1.138,9.928-.621,19.857-.724,29.786-.827,18.823-.1,37.646,0,56.468-1.034,6.412-.31,12.514,1.655,18.926.414,5.688-1.138,12.2-2.482,17.271-.724,5.378,1.965,9.929.414,14.893.31,1.655,0,3.206-.827,4.964-.414a61.785,61.785,0,0,0,26.476.207c2.9-.621,6.309,1.241,8.791-1.551h4.137c3.1,2.379,6.205,4.24,9.308,0h7.24a7.239,7.239,0,0,0,1.758.931c11.687,2.379,23.477,1.138,35.267.724,2.068-.1,4.137-.414,5.9,1.034,2.275,1.965,4.654,1.448,7.24.621,5.274-1.551,10.549-2.9,16.134-1.344,2.172.621,4.551,1.241,6.619.827,11.376-2.275,22.65-.827,34.026-.517,7.55.207,15.1,2.172,22.443,1.344,15.927-1.551,31.958,1.655,47.885-1.241,10.446-1.862,20.891,2.9,31.647.621,10.446-2.172,21.1.1,31.647,0,20.995-.207,41.886.517,62.881.724,3.1,0,5.9,1.344,9.411.517,7.446-1.862,15.307-1.138,24.2.621-3.206,1.551-5.274,1.448-7.033.724a12.913,12.913,0,0,0-7.136-.31c-15.2,2.9-30.613,1.138-45.816,1.655a4.85,4.85,0,0,1-2.482-.414c-4.654-2.586-9.411-1.241-14.065-.31-1.551.31-3,.931-4.551.621a110.366,110.366,0,0,0-37.335-.1c-3.827.621-7.86-1.034-11.79-.621-19.237,1.862-38.473-.621-57.606.827-7.55.621-15-1.655-22.65-.827a127.508,127.508,0,0,1-25.132.1c-14.583-1.448-29.372,1.448-44.058-.31-6-.724-11.894,0-17.789.931-10.963,1.758-21.926-.31-32.888-.1-11.687.207-23.58,2.792-35.267-.724a5.193,5.193,0,0,0-3.516.31c-4.033,1.965-8.377,1.655-12.721,1.655-19.133,0-38.266,0-57.4.1-13.962.1-28.027.827-41.989.1-19.03-1.034-37.956.517-56.986.414-17.168,0-34.44-.517-51.608.414-3.413.207-6.619-2.275-10.135-.517-3.62,1.758-7.343,1.655-11.17,1.344-34.026-2.9-68.155.207-102.181-1.551-20.891-1.034-41.886,1.034-62.777-.517-3.413-.207-6.929-.931-10.239-.517-16.134,2.068-32.268.621-48.4.517a52.415,52.415,0,0,0-5.688.31c-12.928,1.138-25.959,2.689-38.887-.827a6.006,6.006,0,0,0-4.447.517c-2.068,1.344-4.24,1.138-6.516,1.138-19.443.1-38.783-.827-58.123-.931-15,0-30.1-.207-45.092-.207-21.822.1-43.644-.207-65.466-.1-10.652.1-21.3,1.448-31.957.827-19.754-1.138-39.507-.207-59.261-.621-7.033-.1-14.169,0-21.2.414-6.722.414-13.755-1.138-20.478.621-7.757,2.068-14.169-3.723-22.546-1.551-10.342,2.586-21.719,2.172-32.475,1.138-13.135-1.138-26.166-.207-39.2-.414-5.481,0-10.859,1.034-16.134.517a214.066,214.066,0,0,0-25.752-.517c-4.137.1-8.274-1.034-12.2-.621C17.168,8.584,8.584,8.894,0,7.24V5.171C2.172,2.9,4.861,2.482,7.86,1.862c5.275-.931,9.722,2.586,15.1,1.655,7.033-1.138,14.479-.931,21.512-.724,10.963.31,21.822.724,32.785.517,19.443-.517,38.99-.414,58.434.207A192.54,192.54,0,0,0,163.51,2.482a31.272,31.272,0,0,1,10.756.207c7.343,1.551,14.686.621,21.925.207,9.515-.621,18.823-1.655,28.234.414,1.138.207,2.792,1.344,3.413.31,2.275-3.93,6-2.689,8.687-2.068,9.1,1.965,18.2.1,27.407,1.034,16.858,1.862,33.922,1.034,50.884-1.034,2.586-.31,5.585.931,7.86-1.448h6.205c2.792,1.862,5.9,1.138,8.791,1.241,7.136.1,14.479-.827,21.408.517a21.224,21.224,0,0,0,12.2-.931c7.964.931,16.03.31,24.1.827,12.928.724,26.062.31,38.99.414,1.758,0,3.516.414,4.137-1.965h8.274C451.231,2.792,455.782,3.31,460.229,0Z"/>
</svg>
