<svg xmlns="http://www.w3.org/2000/svg" viewBox="0 0 1364.555 9.703">
  <defs>
    <style>
      .cls-1 {
        fill: #fecd61;
      }
    </style>
  </defs>
  <g id="Group_13" data-name="Group 13" transform="translate(0.035)">
    <g id="Group_12" data-name="Group 12">
      <g id="Group_11" data-name="Group 11">
        <g id="Group_10" data-name="Group 10">
          <g id="Group_9" data-name="Group 9">
            <path id="Path_57" data-name="Path 57" class="cls-1" d="M1364.2,6.8c.7-.3.3-.8-1.7-.7l-1.4,1Z"/>
            <path id="Path_58" data-name="Path 58" class="cls-1" d="M1350.9,5c-2.3.5-5,1.3-3.5,2.2,2.3-1,2.9-.6,5.3-1.7,2-.1,3.5.3,3.1.7.7-.3,3.1.2,4.1-.4a20.108,20.108,0,0,0-9.2-.2C1350,5.5,1350.7,5.2,1350.9,5Z"/>
            <path id="Path_59" data-name="Path 59" class="cls-1" d="M1157.4,3.5l1.2.1A3.777,3.777,0,0,0,1157.4,3.5Z"/>
            <path id="Path_60" data-name="Path 60" class="cls-1" d="M1037.6,2.9c.9,0,1.3-.1,1.3-.2C1038.1,2.8,1037.4,2.8,1037.6,2.9Z"/>
            <path id="Path_61" data-name="Path 61" class="cls-1" d="M1017.1,1.8a4.869,4.869,0,0,1,1.2.1A2.553,2.553,0,0,0,1017.1,1.8Z"/>
            <path id="Path_62" data-name="Path 62" class="cls-1" d="M1157.4,3.5l-3.2-.3C1154,3.5,1155.9,3.4,1157.4,3.5Z"/>
            <path id="Path_63" data-name="Path 63" class="cls-1" d="M1324.2,7.4a4.309,4.309,0,0,0,1.7-.3c-.6,0-1.1.1-1.6.1C1324.3,7.3,1324.3,7.3,1324.2,7.4Z"/>
            <path id="Path_64" data-name="Path 64" class="cls-1" d="M1210.3,2.7h1a2.01,2.01,0,0,0,.8-.4Z"/>
            <path id="Path_65" data-name="Path 65" class="cls-1" d="M1250.8,2.5c-.9,0-1.2.8-1.6,1.2a5.249,5.249,0,0,1,2-.6C1251.3,2.9,1251.1,2.7,1250.8,2.5Z"/>
            <path id="Path_66" data-name="Path 66" class="cls-1" d="M1315.1,4l1.1-.1A4.907,4.907,0,0,0,1315.1,4Z"/>
            <path id="Path_67" data-name="Path 67" class="cls-1" d="M1181.3,2.5a1.379,1.379,0,0,0-.4-.3C1180.9,2.3,1181,2.4,1181.3,2.5Z"/>
            <path id="Path_68" data-name="Path 68" class="cls-1" d="M47.2,8.8V8.7C47,8.7,46.9,8.8,47.2,8.8Z"/>
            <path id="Path_69" data-name="Path 69" class="cls-1" d="M.2,4.6H.9c0-.2.1-.3.1-.5Z"/>
            <path id="Path_70" data-name="Path 70" class="cls-1" d="M979.7.7h0Z"/>
            <path id="Path_71" data-name="Path 71" class="cls-1" d="M635.9,1.4c3.9.8-6.3,1-.5,1.8C634.9,2.8,640.8,1.9,635.9,1.4Z"/>
            <path id="Path_72" data-name="Path 72" class="cls-1" d="M1323.2,7.3h0Z"/>
            <path id="Path_73" data-name="Path 73" class="cls-1" d="M635.4,3.2h0l.6.1A1.268,1.268,0,0,0,635.4,3.2Z"/>
            <path id="Path_74" data-name="Path 74" class="cls-1" d="M893.4,1.2a3.919,3.919,0,0,0,.9.4C894.3,1.5,894.1,1.4,893.4,1.2Z"/>
            <path id="Path_75" data-name="Path 75" class="cls-1" d="M957.7,2.4l-1.6-.1A9.15,9.15,0,0,0,957.7,2.4Z"/>
            <path id="Path_76" data-name="Path 76" class="cls-1" d="M860,2.4a8.48,8.48,0,0,0-2.3-.1c.1,0,.2.1.4.1A11.379,11.379,0,0,1,860,2.4Z"/>
            <path id="Path_77" data-name="Path 77" class="cls-1" d="M825.3,2.4c.2.1.4.1.6.2H827Z"/>
            <path id="Path_78" data-name="Path 78" class="cls-1" d="M152.8,8.4a3.959,3.959,0,0,1-1.6-.8C151.7,8.2,146.6,8.5,152.8,8.4Z"/>
            <path id="Path_79" data-name="Path 79" class="cls-1" d="M1324.2,6.9a1.88,1.88,0,0,1-1,.4h1.2C1324.4,7.1,1324.4,7,1324.2,6.9Z"/>
            <path id="Path_80" data-name="Path 80" class="cls-1" d="M858.6,9.1,853.1,9C854.6,9,856.6,9.1,858.6,9.1Z"/>
            <path id="Path_81" data-name="Path 81" class="cls-1" d="M402,8.3l-1.3.1A4.888,4.888,0,0,0,402,8.3Z"/>
            <path id="Path_82" data-name="Path 82" class="cls-1" d="M836.7,9.1a15.469,15.469,0,0,0-3.1-.6c-.2.1-.5.1-.6.2Z"/>
            <path id="Path_83" data-name="Path 83" class="cls-1" d="M151.1,7.6Z"/>
            <path id="Path_84" data-name="Path 84" class="cls-1" d="M114.8,9.6c5.3,0,2.5-1.1,3.6-1.7,6.3-.3,2.9.8,5,1.4,3.9-.3,6.9-1.3,9.8-1.3.2.2.8.2.1.5,4.1-.9,12.3,0,17.1-1.1a1.047,1.047,0,0,1,.6.3c-.8-.6-.9-1.1-.7-1.5,2.4,0,4.4-.7,5.3,0a4.363,4.363,0,0,0-2.2.5l2.5-.3c2.2,1-3.4.4-3.4,1.1,4.8-.3,10.4-1.2,14.1-.9.8,1-8.6.3-3.7,1.2l-5.7-.4c4.4,1.6-3.5-.1.5,1.6,7.5.3,8.4-.5,15.9-.2,1.7-.6-.6-.8,1.1-1.4,10.7-1,8.4,2.6,16.2,1.2,2-.7,2.8-2,8.4-1.3l-1.9,1.2c7.3.1,4.2-1.7,11.8-.9-1.4.5-5.7.4-4.6.5,4.9.9,3.5-.7,7.3-.7l.8,1c7.7-.2,16.3-.9,24.9-1.1-.5.3-1.9.6.1.9,10.8-.5,23.1.1,33.5.7l4-.9c.9,0,1.7.4.7.6,4.1.3.2-.6,2.2-.9,2.3-.1,3.1.5,1.6.8,7.2-.7,20.5-1.6,28-.7l-1.5.3c5.9.4,6.6-1.8,12.1-1l-1,.2c12.8.4,26.9-.4,36.7.9,1.9-1.3,12.7.6,13.5-1.2,7.3.9,5.2,1.2,15.5,1.8,2.7.1,4.1-1.1,7.5-1.3l.1.9,4.6-1,2.5,1.1,3.2-.2c-1.3-.1-2.7-.4-2.5-.7,5-.4,12.1.6,12.2,1.1L422.2,8c-.3.4-2.2.5-3.8.7,6.3-.9,1.1,1,6.9.1-.8-.2.4-.6.5-.7,2.9.6,9.4.6,14.2.3l-.9.6c8.7.2,18.4-.3,28.2-.3-3.5-.3-2.7-1.4.2-1.5l1.1,1c1.9-.6-3-.4.8-1.1,3.7.1,2.5,1.1.4,1.4l4.4-.3c.3.3-.8.4-1.1.8,1.8-.6,7.7,1,10.3-.1l.3.3c9.8,0,14.2-.3,22.2-.4.2-.8,3.3-.7,5.7-1.3,5.9.3,12.4.9,19.4.9,5-.4,1.4-.7,3.7-1.2.4.8,7.4.7,3.8,1.2,8.5-.1,10.8-.2,21.5-.8-1.2-.3-2.5-.5-1.8-.7,1.9-.1,4.4.3,4.1.7l-.5.1c12-1.2,27.8,2.2,37.4.6l-.5.1,9.9-.8c4.6.1-2.7.6.6,1.1,10.8-1.3,17.1.2,25.9-.7,6.8,2.3,24.2-.2,33.5,1.3l-.6-.5c2.4-.5,2.9.3,4.6.4-.2-.4-2.6-.5-1.1-.8,20.2-.6,41.7.8,62.4,1.3,7.6.1,4.3-2.8,13.8-1.5l-2.7,1c15.3-1.2,31.2,0,46.2-1a6.184,6.184,0,0,1-2.4.5c3.2.7,11.7,0,11.7-.6,2.3.1.5.5,2,.8,3.2.4,8-.9,9.6-.2.3.1-.9.2-1.5.3,2.1-.3,9.6.1,7.6-.7,5.6.4,10.7-.4,15.2.1,2.9-.9,9.6.4,10.5-.9-.4,1.4,9.8,1.1,13.4.5-1.2.4,3.1.4,1.7,1,4.1,0,7.8-.3,7.1-1,7.5,1.6,15-1.3,19.2.8,12-.7,23.2-1.2,34-1.5-.4,1.4-12,.1-11.5,1.6,10.3-.6,16.2-1.7,26.4-1.4,2.6.2-1.5.6-2.4.8,10.3-.6,19.8.1,29-.6a6.037,6.037,0,0,1-1.9.4c1.8,0,4.2.2,4-.4l-1.8.2c-2.9-.9,7.1-1.9,7.5-2.3-3.1,1.8,9,.4,4.2,2.7,1.2-.1,2.7-.4,2.4-.8,1.8.1,2.3.4.5.8,6.4-.3,4.2-1,10-1,0,.3-1.2.4-1.8.8a37.118,37.118,0,0,1,10.9-.9c-.3.2.3.4-1.2.4,8.5-.1,14.4-1.5,23.7-1-2.7,1.3,3.2.4,3.7,1.5l5-.3-2-.5c4.4,0,8.2-.8,12-.4l-3.3.5L1041,7l-4.6-.4c4.4-.6-.5-1.4,5.4-1.1-1.2.1,4.4,0,6.7.7h0a28.973,28.973,0,0,1,7.6-.5c.8.4-.7,1.2-.1,1.5,2.1-.9,10.3-.3,13-1.3-.9.2-.9.8-.7.9l1.8-.8c2,.2,2.3.4,2,.8,6.1.1-1.9-1.4,5.3-.8a6.1,6.1,0,0,1-1.5.3c7.3.3,14-.5,20.7-.1,2,1.1-5.8.3-3.6,1.2,9.6-.2,20-1.4,29.3-1.1l-1.7-.1c1.3-1.6,6.9.8,11.7,0-1.2.1-1.5.9-1.2.7,6.4.3,13.1-.4,22.7-.9l-1.2.4c3.8.4,9.9.2,14,.4,1.2-.4,3.5-.3,2.1-.9,12.5,2.3,23.9-1.2,35,.7-1.3,0-3.2.4-2.1.4l9.5-.4c-.7-.7-1.2-.4-3.2-1a24.618,24.618,0,0,1,6.2-.7c-4.3.5,0,1.1,1.9,1.5-.3-.2.3-.4.2-.7,4.9,1.2.8-1.4,7.6-.6l-.4.4a61.581,61.581,0,0,1,7.6-.6c1.1.8-2.7.4-2.9,1,3.8,0,7.6-1.5,11-.7-1.6.2-4,.2-5.6.4a29.017,29.017,0,0,0,7,.9h-.3l6.5.4-1.7-.3c4.8-2.1,9.8-.4,16.2-1.8-6.3,1.3-1,.8-1.5,1.7,1.6.3,4.2.5,3.4.8,3.1-.7,5.1.6,9.4-.5.2.3,3.3,0,2.6.8,4-.2-.9-.5-.6-.9,6.1-1,14.4,1.2,23.2-.2,7.6-.6,9-1.6,16-2,2.4.5-1.9,1.1-1.9,1.1a44.345,44.345,0,0,0,10.3,0c-.7.3,0,.5,1.1.8,2.9-.1,1.9-1.1,5.8-.6a18.266,18.266,0,0,1-2.9,1.2c3.4-.3,6.8-.8,10.3-1.1.9.5-2.1.8-3.4,1.1,4-.2,10.3-.5,11.5-1.3l-2.5-.3c1.4,0,.7.7-.3.8-3.4.6-4.9-.3-5.1-.6l2.5-.2c-2.6-1.7-10.1.3-15.2.2l2.1-1.2-5.2,1c-1.1-.3-1.9-1,.6-1.2-3.6-.6-3.2.4-6.3-.2-.3-.1-.2-.2.1-.2l-3.6.4c.7-.3-.6-.9,1.6-.7-6.4-.7-10.3.9-12.7,0l.5-.1c-8.8.4-.9.9-7.5,2L1289,3.1l-.9.9c-.9,0-2.7-.1-2.4-.5-3.4.6.6.4-1.4,1-4.4-.8-12.1.4-13.1-1.1-1.6.7,4.2.5-.5,1-1.3-1.6-5.4.3-9.4-.5,1.2-.8,5-.4,1-1.1-2.4,1.4-7.8-.3-11.2,0-.2,1.1-7.4.5-13,.8.4-.4-10.7-.6-16-1l.2-.2c-1,1.1-6.5.9-10.4,1.1.2-.7.9-.9,3-1.2h-3.7c-.9.4-2,.5-4.5.7l.9-.8c-5,0-10,1-16.4.4-.4.8,5.1,2.1-1.7,2.7-.3-.4-.5-1.1,1.3-1.3a14.7,14.7,0,0,1-3.2.2l2.7-.7c-2.9-.3-1.5.6-3.8.5,0-.6-1.7-.4-1.4-.9a27.884,27.884,0,0,0,2.9,0,30.13,30.13,0,0,1-6.8-.9c.2.3,0,.8-1.9.9-5,0-1.7-.7-4.6-1-1.2.4-4.4,0-4.5.9a3.42,3.42,0,0,1-2.3-.7c-2.6.4-12,.1-9.1,1.1l.7.1h-.4c-8.4.9-17.5-.5-25.8-.1V3.1c-5,.3-11.1.2-14.7.8-1.5,0-3.5-.5-2.9-.9-3.8.2-4.2.6-9.7.1,3.8-.5-1.3-.5,3.9-.4-5-.3-6.1-.7-11.4.1,1.8-.8-3.7-1-6.1-.7l3.5.5c-2.6.1-5,0-7.3,0l1.3-1c-10.1-1.2-18.3,2.1-26,0-2.7.7,5.5.5,3.1,1.3-4.7-.1-9.5-1.6-11-1.6-6.4-.6-6,1.5-12.6,1.1.9.4,1.7,1.3-3.3,1.6-4.7-.1-5.7-1.5-2.8-1.8,1.1,0,1.7.1,1.6.2,1.5-.1,3.5-.3,1.6-.7l-.6.4c-2.3-.4-8.7-.3-7.2-.9-3.5.3-1.5.6,1.1.8-6-.5-9.3,0-15.5-.4,1,.2,1.9.6.9.6-9-.4-4,.7-10.1.8-3.5-.5,1.2-1.3-4.9-.8-3.8-.4-.8-.9.7-1.2-5.6.7-10.5-.5-13.7-.6l3-.3a39.374,39.374,0,0,1-4.7.2l1.7.7C989.5.9,988,.9,988,.6c-1.8.5,1.4,1.2-2.2,1.8-2.3-.4-7,.4-7.8-.6,7.3.3-.8-.9,5.4-1.1a31.968,31.968,0,0,1-4.4,0c-.3-.1.2-.2.7-.2-7-.8-3.2,1.1-10.4,1,.9-.5-1.7-1-2.9-.9,2.9,0,1.4.9-1.3,1.3-4.6-.4-5,.3-7.5.3l2.8.2c-.9.5-3.3.5-6.5.6-.3-.4,2.9-.3,1.8-.5-3.6.9-8.1-1-13.1-.3-2.3-.4-.2-1-2.3-1.2-5.6.7-6.1-.7-11.9-.2,1.7.7,2,.5-2.2,1.2l9.7-.5-6.2,1c2.9,0,6.2-.4,7.9-.3-3,.6-2.7.4-1.3,1-4-1.1-7.9.6-12.5-.1l.1-1.8c-6.9-.8-12.3.9-21.4.5l2.9.3c-1.2.7-5.6.1-8.5.4.3-.6-1.6-.8-2.8-1.2.2.4-6.6,0-7.4,1.1l-4-.8c-7.3-.3-8.3,1.7-15.3,1.5,2.1-.6-1.1-1.1,3.6-1.5-2.3,0-4.4-.1-4.5.3-1.4-.4-6.5.8-8.6.2a6.981,6.981,0,0,1-3.9.8c-.3-.1,0-.3,0-.3,0,.3-4.1.4-1.8,1.1-7.2-1.8-20.1.1-26.4-1.5a142.352,142.352,0,0,1-15.7.8c.3-.2,0-.3.9-.2-6.4-.6-3.9,1.7-11.2,1.1-3.7-1,3.9-.5,1.5-.9-1-1.9-8.8.3-13.7-.9l1.2-.1c-3.7-.7-9.1.7-15.2.6,0,0,.3-.2,0-.3-4.2,1-12.1,1.3-18,1.6,1.8-.8,2.7-.4,1.6-1.2-2.6.1.8,1.2-4.5,1.5-1.7-.4-5.5-.8-6-1.6h5c-2.5-1.1-6.4,0-9-.1L743,2c-7.6.2-7.7,1.3-15.9,1.2l.8.4c-4.5,1.2-3.7-.7-8.2.2l-1.3-1.2c-2.9.3-10.3,1.1-15.6,1.4,3-.9,9.2-1.3,13-1.8-2.9,0-9.9.1-11.4.7a16.446,16.446,0,0,1,3.8-.2,59.6,59.6,0,0,1-14.1,1.4c1-2.3-15.2-.6-19.4-2.4-10.3.8-20.4-.4-32.4-.2,4.3,1.8-3.5.1-2.8,1.9a21.738,21.738,0,0,1-4.1,0L627,2.1c-2-.5,2.7-.4,2.4-.8-6.1-.1-2.6-.8-6.6-1.3.8.7-2.1.9-5.6.7l4.9.8c-8.5,1-7.4-1.5-16-.6l2.7-.6c-4.4.3-16.3,0-20.6,1.5-.8-.2-1.8-.7.1-.8-10.6-.2-23.5,1.6-31.7.7l.8-.4c-2,.1-3.4.8-5.9.4.1-.2.8-.4-.1-.5a33.218,33.218,0,0,1-7.8.5l2.2-.5C535.5.6,530,2.4,521.3,2.7c0-1.3-8.1-1.7-12.1-2l.1-.2c-12-.2-20.4,1.1-31.5,1.6C470.9.7,454.4,1.5,443.4.7c1.7.2-.3,1-2.2,1.2-2.6-.3-7.2.9-6.8-.3h.9c-2-1.2-7.3-.9-11.5-.9l-.7,1.6c-10.9-2.3-28.6.8-34.6-1.2-2.6.4-5.9.4-8.5.8l.1-.8c-7.3-.2-10.9-.3-20-.1l1.8-.6c-5.1-.1-6.4,2.4-11.1,2.5l-1.4-1.3c-8.9,0-17.9-1.1-26.6.1.1-.2.4-.6,1.8-.6-4.2,0-16.2-.9-14.6.9-.1-1.1-9.2-.1-14,.4l.7-.8c-4,1.1-4.2,1.4-9.8,1.7-1.3-.1-1.2-.7.6-.5-4.5-.4-3.5.8-8.9.3l2-.5c-4.6-.1-4.2.2-6.8.8-2.9.3-8.7-.2-9.4-1-.6.5-3.1,1.1-5.8.9-.4-.3.6-.5,1.1-.5-7.7-.6-11.4,1-16.7.2-.1-.3-.5-.4-.9-.5,6.1,0,11,.1,10.6.1,0-.8-4.9-.9-1-2-4,.6-10.7,1.8-15.5,1.5-.2-.1-.5-.1-.6-.3l.5-.1a14.545,14.545,0,0,0-3,.1c-1.5-.1-2.5-.2-4-.2-.6-.6-5.6-.3-8.1-.4.2.8-3,.7,0,1.4-.4-.1.5-.1,2.1-.1a2.787,2.787,0,0,0,1-.1.31.31,0,0,0-.2.1c1.6,0,3.7,0,6.1-.1a16.1,16.1,0,0,1-6.7.3c-1.3.5-2.6,1.1-3.4,1.4-3.4-1.2-9.8-1.8-10.7-2.5-7.5.5-17.7.3-22.4,1.9a4.89,4.89,0,0,1-3.2-.7,24.518,24.518,0,0,0,3.4-.4c-4.3.4-12.6.2-13.7,1.3-5.4-.5,3-1-4.4-.8l1-.3c-14.5-1.8-23.6,2.8-39.7.6a4.013,4.013,0,0,1,1.9.4c-18.4-1-37.8.9-56-.6-5.2-.3-5.7.4-8.9.9L66.1,3,60.7,4c-7.4.5-13-2.5-22.7-1.1l1.2.6c-3.5-.1-11,.4-10.4-.3a3.882,3.882,0,0,1-2.5.3V3l-8.5.8c-6.6-.3,1-1.9-8.6-2C5.6,2.1-1,3.3.3,3.6c1.4,0,3.7.3,3.8.8L.8,4.6C.2,6-2.3,7.4,5.8,8.4l5.6-.9,1.8.7H8.5a12.883,12.883,0,0,0,6.3-.3,3.894,3.894,0,0,0,2.3.7l5.5-1.3c.7.5-2.5,1.1,1.2,1.4,2.6-.6-2.5-1.2,1.8-1.6,2.7.6,1.9,1.2,5,.6.4.4-.2.6-1.5.7C32,8,36.6,8.3,38,7.5c2.8.8,9.5-.2,9.2,1.1a42.018,42.018,0,0,1,7.5-1.1c-4.7,1.6,9.6.1,8.4,1.8,3.5-1.4,12.6-.6,18.7-1.4a5.688,5.688,0,0,1-1.6.3,42.243,42.243,0,0,1,6.7.8c.4-1.2,5.8-1.4,8.8-2.2,4.2,1.1-2.6,1.4-1.2,2.5-.2-1,7.4-1,5.9-1.7,3.2.7,2.8.3,4.5,1.3.6-1.5,3-.2,5.7-1.2,4.7.7,1.2,1.4,6.4.9C119.4,9.1,114.8,9.6,114.8,9.6ZM237.6,7.1h0c-1.1,0-2,.1-2.5.1C235.6,7.2,236.4,7.1,237.6,7.1Zm10.4,0h-4.5c-.4-.3,0-.6,1.1-.6C244,6.7,246.4,6.8,248,7.1ZM226.1,1.2c1.6-.1,2.2,0,2.4.2-.8,0-1.7,0-2.9.1a.349.349,0,0,1-.2.1A5.737,5.737,0,0,0,226.1,1.2Z"/>
            <path id="Path_85" data-name="Path 85" class="cls-1" d="M223.2,2.3c-.2,0-.4.1-.7.1.3.1.7.1,1,.2l.6-.3Z"/>
            <path id="Path_86" data-name="Path 86" class="cls-1" d="M1158.9,3.6h-.2c.2,0,.3.1.5.1C1159,3.7,1159,3.6,1158.9,3.6Z"/>
            <path id="Path_87" data-name="Path 87" class="cls-1" d="M390.5,8.7V8.5l-.9.2Z"/>
            <path id="Path_88" data-name="Path 88" class="cls-1" d="M1215.8,6.5a.956.956,0,0,0,.7.2S1216.2,6.6,1215.8,6.5Z"/>
            <path id="Path_89" data-name="Path 89" class="cls-1" d="M1240.3,6.7l3.5.3A27.339,27.339,0,0,0,1240.3,6.7Z"/>
            <path id="Path_90" data-name="Path 90" class="cls-1" d="M1259.2,7.1c.2-.1.3-.3.4-.4h0Z"/>
            <path id="Path_91" data-name="Path 91" class="cls-1" d="M959,8.1h-.7C956.5,8.3,957.7,8.2,959,8.1Z"/>
            <path id="Path_92" data-name="Path 92" class="cls-1" d="M1048.3,6.1a25.352,25.352,0,0,1-2.9.4C1047,6.6,1048.3,6.6,1048.3,6.1Z"/>
            <path id="Path_93" data-name="Path 93" class="cls-1" d="M859.2,9.1Z"/>
            <path id="Path_94" data-name="Path 94" class="cls-1" d="M1041.3,6.5a19.6,19.6,0,0,0,4.2,0C1044.1,6.5,1042.6,6.4,1041.3,6.5Z"/>
            <path id="Path_95" data-name="Path 95" class="cls-1" d="M1341,7.5h.9c0-.1,0-.1.1-.1Z"/>
            <path id="Path_96" data-name="Path 96" class="cls-1" d="M1342.1,7.4l1-.1A2.245,2.245,0,0,0,1342.1,7.4Z"/>
            <path id="Path_97" data-name="Path 97" class="cls-1" d="M1345.2,7.1l-2.1.2A6.815,6.815,0,0,0,1345.2,7.1Z"/>
            <path id="Path_98" data-name="Path 98" class="cls-1" d="M1316,7.1l-.3.3Q1316,7.25,1316,7.1Z"/>
            <path id="Path_99" data-name="Path 99" class="cls-1" d="M1308.4,7.2c1.8.1,4.5.7,7.1.5l.2-.2C1314.6,7.9,1310.2,6.7,1308.4,7.2Z"/>
            <path id="Path_100" data-name="Path 100" class="cls-1" d="M1276.7,3.4l6.4.2c-1.1-.3-2.6-.8.3-.8C1275.4,1.8,1285.1,3.5,1276.7,3.4Z"/>
            <path id="Path_101" data-name="Path 101" class="cls-1" d="M1257,2.9c3.4-.2,0-.5.1-.7C1255,2.6,1254.5,2.6,1257,2.9Z"/>
            <path id="Path_102" data-name="Path 102" class="cls-1" d="M1114.4,2.9l.3-.8C1112.1,2.3,1114.7,2.5,1114.4,2.9Z"/>
            <path id="Path_103" data-name="Path 103" class="cls-1" d="M1087.1,6.9l2.6.5,1.2-.7Z"/>
            <path id="Path_104" data-name="Path 104" class="cls-1" d="M1071,1.4l1.2-.1-4.4.3Z"/>
            <path id="Path_105" data-name="Path 105" class="cls-1" d="M831.5,1.7l.8.9C834,2.5,834.4,1.4,831.5,1.7Z"/>
            <path id="Path_106" data-name="Path 106" class="cls-1" d="M728.1,2.7a10.986,10.986,0,0,0-5.8-.3C724.6,2.4,726.9,2.8,728.1,2.7Z"/>
            <path id="Path_107" data-name="Path 107" class="cls-1" d="M417.9,1.1,420,.8l-3.9.3Z"/>
          </g>
        </g>
      </g>
    </g>
  </g>
</svg>
